REM DIRINDEX 1\2,1\3
REM DIRNAME folder01,folder02,folder03
TITLE ""
FILE "Track06.mp3" MP3
  TRACK 01 AUDIO
    TITLE "2:cjc103_059"
    INDEX 01 00:00:00
  TRACK 02 AUDIO
    TITLE "0:"
    INDEX 01 00:17:27
  TRACK 03 AUDIO
    TITLE "3:cjc103_060"
    INDEX 01 00:18:54
  TRACK 04 AUDIO
    TITLE "0:"
    INDEX 01 00:20:02
  TRACK 05 AUDIO
    TITLE "3:cjc103_061"
    INDEX 01 00:21:27
  TRACK 06 AUDIO
    TITLE "0:"
    INDEX 01 00:22:52
